<svg id="SL" xmlns="http://www.w3.org/2000/svg" viewBox="0 0 532.56 219.32"><path d="M273,163.65c-7.91,33.69-29.35,47.57-64,47.57H81.74c-29.35,0-62.32,7.93-72.22,39.3a63.83,63.83,0,0,1-2.31-16.18v-5c0-36.66,34.63-65.73,65.3-65.73Zm1,154.59c0,38-34.63,64.74-65.62,64.74H72.51c-27.7,0-58.7-19.82-64.31-47.57H188.25c19.13,0,18.14-17.83,18.14-17.83v-.66c0-5.29-.66-17.18-18.14-17.18H72.51c-16.49,0-35.62-7.27-46.83-20.81a31.3,31.3,0,0,1-4.29-15.52c0-26.76,31-37.66,53.76-37.66a14.8,14.8,0,0,0-.33,3.63v5c0,4.62.33,17.84,17.8,17.84H208.37C246,252.18,274,283.88,274,318.24Z" transform="translate(-7.21 -163.65)" fill="#fff"/><path d="M300.37,277.61v-114h67.27V320.88H350.16C321.14,320.88,304.66,306.35,300.37,277.61Zm239.4,57.8c-2,20.48-21.1,47.57-54.74,47.57H300.37V314.6c14.18,16.85,34.95,20.48,49.79,20.81Z" transform="translate(-7.21 -163.65)" fill="#fff"/></svg>