<svg width="34" height="38" viewBox="0 0 34 38" fill="none" xmlns="http://www.w3.org/2000/svg">
<path d="M0 9.5L15.5168 0.566085C16.1266 0.214974 16.8761 0.210173 17.4904 0.553443L33.5 9.5V28.5L17.4904 37.4466C16.8761 37.7898 16.1266 37.785 15.5168 37.4339L0 28.5V9.5Z" fill="#34852C"/>
<path d="M0 9.5L15.5168 0.566085C16.1266 0.214974 16.8761 0.210173 17.4904 0.553443L33.5 9.5V25.5L17.4904 34.4466C16.8761 34.7898 16.1266 34.785 15.5168 34.4339L0 25.5V9.5Z" fill="#83D95E"/>
<path d="M0 11.5L15.5168 2.56609C16.1266 2.21497 16.8761 2.21017 17.4904 2.55344L33.5 11.5V26.5L17.4904 35.4466C16.8761 35.7898 16.1266 35.785 15.5168 35.4339L0 26.5V11.5Z" fill="#50A530"/>
</svg>
