<svg xmlns="http://www.w3.org/2000/svg" viewBox="0 0 217.5 217.5"><g id="m"><path d="M40.58,74.41a12.74,12.74,0,0,1,1.18-5.9,9.51,9.51,0,0,1,2.81-3.45,10.26,10.26,0,0,1,3.36-1.64,12.13,12.13,0,0,1,3-.45,12.12,12.12,0,0,1,3,.45,10.26,10.26,0,0,1,3.36,1.64,9.63,9.63,0,0,1,2.82,3.45,12.86,12.86,0,0,1,1.18,5.9v4.17h.36a25.74,25.74,0,0,1,3.91-6.17,30.39,30.39,0,0,1,5.81-5.26,27.53,27.53,0,0,1,7.72-3.73,32.36,32.36,0,0,1,9.62-1.36q10.17,0,16.89,4.54a30.15,30.15,0,0,1,10.35,12,31.16,31.16,0,0,1,11.62-12.25,33.15,33.15,0,0,1,17.07-4.27,32.75,32.75,0,0,1,14.62,3,28.75,28.75,0,0,1,10,7.89A32.07,32.07,0,0,1,175,84.21a47.42,47.42,0,0,1,1.82,13.07v43.94a14.61,14.61,0,0,1-1.18,6.27,9.84,9.84,0,0,1-2.91,3.72,10.07,10.07,0,0,1-3.63,1.72,14.41,14.41,0,0,1-3.18.46,13.78,13.78,0,0,1-3.27-.46,10.17,10.17,0,0,1-3.54-1.72,9.72,9.72,0,0,1-2.9-3.72,14.46,14.46,0,0,1-1.18-6.27V103.46a62.42,62.42,0,0,0-.55-8,21.56,21.56,0,0,0-2.36-7.54,15.75,15.75,0,0,0-5-5.53,14.65,14.65,0,0,0-8.45-2.18,16.58,16.58,0,0,0-8.72,2.18,19.06,19.06,0,0,0-6,5.62,24.42,24.42,0,0,0-3.45,7.72,33.89,33.89,0,0,0-1.09,8.44v37a14.46,14.46,0,0,1-1.18,6.27,9.82,9.82,0,0,1-2.9,3.72,10.19,10.19,0,0,1-3.64,1.72,14.42,14.42,0,0,1-3.17.46,13.71,13.71,0,0,1-3.27-.46,10,10,0,0,1-3.54-1.72,9.74,9.74,0,0,1-2.91-3.72,14.46,14.46,0,0,1-1.18-6.27V99.1c0-5.45-1.3-9.95-3.91-13.53S87,80.22,81.44,80.22a16.86,16.86,0,0,0-8.54,2.09A17.89,17.89,0,0,0,67,87.66a24.24,24.24,0,0,0-3.45,7.54,32.05,32.05,0,0,0-1.18,8.62v37.4a14.61,14.61,0,0,1-1.18,6.27,9.84,9.84,0,0,1-2.91,3.72,10.07,10.07,0,0,1-3.63,1.72,14.41,14.41,0,0,1-3.18.46,13.78,13.78,0,0,1-3.27-.46,10.17,10.17,0,0,1-3.54-1.72,9.72,9.72,0,0,1-2.9-3.72,14.46,14.46,0,0,1-1.18-6.27Z" transform="translate(0 0.5)" fill="#ed8930"/></g><g id="Ellipse_1" data-name="Ellipse 1" style="isolation:isolate"><g id="Ellipse_1-2" data-name="Ellipse 1"><path d="M108.75,21.5A86.75,86.75,0,1,1,22,108.25,86.85,86.85,0,0,1,108.75,21.5m0-22A108.75,108.75,0,1,0,217.5,108.25,108.75,108.75,0,0,0,108.75-.5Z" transform="translate(0 0.5)" fill="#ed8930"/></g></g></svg>