<svg id="SL-Craft" xmlns="http://www.w3.org/2000/svg" viewBox="0 0 2042.52 219.65"><path d="M266,.65c-7.91,33.69-29.35,47.57-64,47.57H74.74c-29.35,0-62.32,7.93-72.22,39.3A63.83,63.83,0,0,1,.21,71.34v-5C.21,29.72,34.84.65,65.51.65Zm1,154.59c0,38-34.63,64.74-65.62,64.74H65.51c-27.7,0-58.7-19.82-64.31-47.57H181.25c19.13,0,18.14-17.83,18.14-17.83v-.66c0-5.29-.66-17.18-18.14-17.18H65.51c-16.49,0-35.62-7.27-46.83-20.81a31.3,31.3,0,0,1-4.29-15.52c0-26.76,31-37.66,53.76-37.66a14.8,14.8,0,0,0-.33,3.63v5c0,4.62.33,17.84,17.8,17.84H201.37C239,89.18,267,120.88,267,155.24Z" transform="translate(-0.21 -0.65)" fill="#fff"/><path d="M293.37,114.61V.65h67.27V157.88H343.16C314.15,157.88,297.66,143.35,293.37,114.61Zm239.4,57.8C530.8,192.89,511.67,220,478,220H293.37V151.6c14.18,16.85,34.95,20.48,49.79,20.81Z" transform="translate(-0.21 -0.65)" fill="#fff"/><path d="M628.73,94.13v37H549.26v-37Z" transform="translate(-0.21 -0.65)" fill="#fff"/><path d="M909,.65c-3.95,26.76-27,47.57-54.74,47.57H715.79c-16.16,0-38.91,4-53.75,22.46V56.81C662,25.76,687.1.65,717.77.65Zm0,172.09c-4.28,27.09-28,47.57-55.4,47.57H717.77A55.92,55.92,0,0,1,662,164.49V117.91c0-36.66,19.12-55.49,53.75-55.49h13.85v92.49c0,4.62.66,17.83,17.8,17.83Z" transform="translate(-0.21 -0.65)" fill="#fff"/><path d="M975.3,48.22c-33.3,0-53.75-29.4-55.39-47.57H1129c40.56,1,70.24,31.71,74.86,72.67-12.53-18.5-34.3-25.1-56.06-25.1ZM1153,165.48l51.78,54.17h-83.76l-48.15-50.87h-58V220H947.27V62.42h67.61v59.13h92.33c16.49,0,30-16.52,30-36.67A41.64,41.64,0,0,0,1131,62.42h18.8c29.67,0,49.46,15.53,49.46,45.91l-.33,9.91C1190.31,140.7,1173.82,158.21,1153,165.48Z" transform="translate(-0.21 -0.65)" fill="#fff"/><path d="M1367.39,63.74,1292.53,220h-67.6L1329.79.65h74.86l15.5,32C1398.06,24.77,1381.24,36.66,1367.39,63.74ZM1509.84,220h-67.93l-22.42-46.91h-88.7l22.75-47.56h43.2L1375.3,80.26l5-10.24c8.57-16.85,21.1-28.74,35.94-25.44,7.92,1.66,14.18,9.58,17.81,17.18C1434,61.76,1483.13,164.49,1509.84,220Z" transform="translate(-0.21 -0.65)" fill="#fff"/><path d="M1536.55.65h183.68c29.68,0,52.43,22.79,55.4,47.57h-193.9c-13.52,0-32.32,3.63-45.18,20.15Zm67.6,88.53H1710v47.56H1604.15V220h-67.6V116.59c1.32-35.67,16.16-54.17,45.18-54.17h22.42Z" transform="translate(-0.21 -0.65)" fill="#fff"/><path d="M2042.74,48.22H1836.31c-28.36,0-52.1-23.12-55.07-47.57H1985C2015,.65,2042.74,22.78,2042.74,48.22Zm-97.28,14.53v156.9h-67.27V62.75Z" transform="translate(-0.21 -0.65)" fill="#fff"/></svg>